<?xml version="1.0" encoding="UTF-8" standalone="no"?>
<svg
   version="1.1"
   width="500"
   height="500"
   viewBox="0 0 500 500"
   xml:space="preserve"
   id="svg2"
   sodipodi:docname="logo.svg"
   inkscape:version="1.3 (0e150ed6c4, 2023-07-21)"
   xmlns:inkscape="http://www.inkscape.org/namespaces/inkscape"
   xmlns:sodipodi="http://sodipodi.sourceforge.net/DTD/sodipodi-0.dtd"
   xmlns="http://www.w3.org/2000/svg"
   xmlns:svg="http://www.w3.org/2000/svg"><sodipodi:namedview
   id="namedview2"
   pagecolor="#ffffff"
   bordercolor="#000000"
   borderopacity="0.25"
   inkscape:showpageshadow="2"
   inkscape:pageopacity="0.0"
   inkscape:pagecheckerboard="0"
   inkscape:deskcolor="#d1d1d1"
   inkscape:zoom="1.1497556"
   inkscape:cx="297.45452"
   inkscape:cy="210.91439"
   inkscape:window-width="1920"
   inkscape:window-height="1009"
   inkscape:window-x="-8"
   inkscape:window-y="144"
   inkscape:window-maximized="1"
   inkscape:current-layer="svg2" />&#10;<desc
   id="desc1">Created with Fabric.js 5.3.0</desc>&#10;<defs
   id="defs1">&#10;</defs>&#10;<g
   transform="matrix(9.8021569,0,0,8.044218,271.00426,234.90963)"
   id="zJDigBNf5yjvpUyhx8nuu">&#10;<path
   style="opacity:1;fill:#000000;fill-rule:nonzero;stroke:#62c22e;stroke-width:0;stroke-linecap:butt;stroke-linejoin:miter;stroke-miterlimit:4;stroke-dasharray:none;stroke-dashoffset:0"
   d="M -40.32258,-40.32258 H 40.32258 V 40.32258 H -40.32258 Z"
   stroke-linecap="round"
   id="path1" />&#10;</g>&#10;<g
   transform="matrix(1.3091077332 0 0 1.5977585034 250 250)"
   id="XWLxr15p3ekv-nHcgPe0S">&#10;<path
   style="stroke: rgb(234,72,53); stroke-width: 0; stroke-dasharray: none; stroke-linecap: butt; stroke-dashoffset: 0; stroke-linejoin: miter; stroke-miterlimit: 4; fill: rgb(255,255,255); fill-rule: nonzero; opacity: 1;"
   transform=" translate(-148.4154550511, -121.6027439275)"
   d="M 127.41882 38.66877 L 164.93282 38.66877 L 164.93282 39.20174 L 211.86103 175.49116 L 258.83418 39.07124000000002 L 259.31691 39.23746000000002 L 259.31691 39.07124000000002 L 296.83091 39.07124000000002 L 296.83091 243.20548000000002 L 259.31691 243.20548000000002 L 259.31691 152.89554000000004 L 228.22070000000002 243.20548000000002 L 227.96192000000002 243.11638000000002 L 227.96192000000002 243.20549000000003 L 195.48712 243.20549000000003 L 195.48712 243.16415000000003 L 164.93281000000002 154.42800000000005 L 164.93281000000002 243.20547000000005 L 127.41881000000001 243.20547000000005 z M 37.514 243.20548 L 0 243.20548 L 0 37.51399999999998 L 0 37.51399999999998 L 0 -2.1316282072803006e-14 L 296.83091 -2.1316282072803006e-14 L 296.83091 37.51399999999998 L 37.51400000000001 37.51399999999998 L 37.51400000000001 83.31012999999999 L 125.67549000000001 83.31012999999999 L 125.67549000000001 120.82413 L 37.51400000000001 120.82413 z"
   stroke-linecap="round"
   id="path2" />&#10;</g>&#10;<rect
   style="fill:#000000;stroke-width:1.10164"
   id="rect2"
   width="12.666397"
   height="68.492813"
   x="209.82719"
   y="185.03932" /><rect
   style="fill:#000000;stroke-width:2.23022"
   id="rect2-6"
   width="12.666397"
   height="280.71182"
   x="-128.31429"
   y="206.79608"
   transform="rotate(-90)" /></svg>
